<svg version="1.1" viewBox="165.18478260869566 52.664 193.32065217391303 351.396" xmlns:xlink="http://www.w3.org/1999/xlink" xmlns="http://www.w3.org/2000/svg" style="max-height: 500px" width="193.32065217391303" height="351.396">
<defs>
<filter height="100%" width="100%" y="0%" x="0%" filterUnits="objectBoundingBox" id="alpha">
  <feColorMatrix values="0 0 0 0 1 0 0 0 0 1 0 0 0 0 1 0 0 0 1 0" in="SourceGraphic" type="matrix"/>
</filter>
<mask id="mask0">
  <g filter="url(#alpha)">
<rect style="fill:rgb(0%,0%,0%);fill-opacity:0.25098;stroke:none;" height="454" width="501" y="0" x="0"/>
  </g>
</mask>
<clipPath id="clip1">
  <rect height="454" width="501" y="0" x="0"/>
</clipPath>
<g clip-path="url(#clip1)" id="surface5">
<path d="M 353.386719 384.660156 C 353.386719 371.3125 307.101562 360.492188 250 360.492188 C 192.898438 360.492188 146.613281 371.3125 146.613281 384.660156 C 146.613281 398.007812 192.898438 408.828125 250 408.828125 C 307.101562 408.828125 353.386719 398.007812 353.386719 384.660156 Z M 353.386719 384.660156" style="stroke:none;fill-rule:nonzero;fill:rgb(60.392157%,61.176471%,60.784314%);fill-opacity:1;"/>
</g>
<mask id="mask1">
  <g filter="url(#alpha)">
<rect style="fill:rgb(0%,0%,0%);fill-opacity:0.211765;stroke:none;" height="454" width="501" y="0" x="0"/>
  </g>
</mask>
<clipPath id="clip2">
  <rect height="454" width="501" y="0" x="0"/>
</clipPath>
<g clip-path="url(#clip2)" id="surface8">
<path d="M 215.988281 342.636719 C 215.988281 342.636719 225.8125 341.636719 233.378906 341.097656 C 233.570312 339.640625 233.675781 338.511719 233.675781 338.199219 C 233.675781 337.179688 207.679688 339.832031 207.679688 339.832031 C 207.679688 339.832031 208.703125 345.734375 208.703125 347.375 C 208.703125 348.492188 212.941406 349.507812 217.003906 350.046875 C 216.957031 348.246094 215.988281 342.636719 215.988281 342.636719 Z M 215.988281 342.636719" style="stroke:none;fill-rule:nonzero;fill:rgb(77.647059%,32.156863%,34.509804%);fill-opacity:1;"/>
</g>
<mask id="mask2">
  <g filter="url(#alpha)">
<rect style="fill:rgb(0%,0%,0%);fill-opacity:0.6;stroke:none;" height="454" width="501" y="0" x="0"/>
  </g>
</mask>
<clipPath id="clip3">
  <rect height="454" width="501" y="0" x="0"/>
</clipPath>
<g clip-path="url(#clip3)" id="surface11">
<path transform="matrix(0.5,0,0,0.5,0,0)" d="M 427.21875 769.75 C 427.609375 769.65625 427.984375 769.523438 428.34375 769.351562" style="fill:none;stroke-width:2.803841;stroke-linecap:round;stroke-linejoin:round;stroke:rgb(100%,100%,100%);stroke-opacity:1;stroke-miterlimit:4;"/>
</g>
<mask id="mask3">
  <g filter="url(#alpha)">
<rect style="fill:rgb(0%,0%,0%);fill-opacity:0.6;stroke:none;" height="454" width="501" y="0" x="0"/>
  </g>
</mask>
<clipPath id="clip4">
  <rect height="454" width="501" y="0" x="0"/>
</clipPath>
<g clip-path="url(#clip4)" id="surface14">
<path transform="matrix(0.5,0,0,0.5,0,0)" d="M 410.15625 768.257812 C 410.15625 768.257812 413.835938 772.007812 422.921875 770.632812" style="fill:none;stroke-width:2.803841;stroke-linecap:round;stroke-linejoin:round;stroke:rgb(100%,100%,100%);stroke-opacity:1;stroke-miterlimit:4;"/>
</g>
<mask id="mask4">
  <g filter="url(#alpha)">
<rect style="fill:rgb(0%,0%,0%);fill-opacity:0.211765;stroke:none;" height="454" width="501" y="0" x="0"/>
  </g>
</mask>
<clipPath id="clip5">
  <rect height="454" width="501" y="0" x="0"/>
</clipPath>
<g clip-path="url(#clip5)" id="surface17">
<path d="M 269.242188 351.84375 C 267.609375 350.214844 266.515625 340.621094 266.515625 339.597656 C 266.515625 339.558594 266.566406 339.527344 266.636719 339.5 C 263.386719 339.316406 261.0625 339.292969 261.0625 339.597656 C 261.0625 340.621094 262.15625 350.214844 263.789062 351.84375 C 265.160156 353.21875 269.246094 353.441406 272.390625 353.046875 C 271.015625 352.84375 269.855469 352.460938 269.242188 351.84375 Z M 269.242188 351.84375" style="stroke:none;fill-rule:nonzero;fill:rgb(77.647059%,32.156863%,34.509804%);fill-opacity:1;"/>
</g>
<mask id="mask5">
  <g filter="url(#alpha)">
<rect style="fill:rgb(0%,0%,0%);fill-opacity:0.6;stroke:none;" height="454" width="501" y="0" x="0"/>
  </g>
</mask>
<clipPath id="clip6">
  <rect height="454" width="501" y="0" x="0"/>
</clipPath>
<g clip-path="url(#clip6)" id="surface20">
<path transform="matrix(0.5,0,0,0.5,0,0)" d="M 569.890625 770.835938 C 573 771.015625 577.71875 771.3125 581.125 769.054688" style="fill:none;stroke-width:2.803841;stroke-linecap:round;stroke-linejoin:round;stroke:rgb(100%,100%,100%);stroke-opacity:1;stroke-miterlimit:4;"/>
</g>
<mask id="mask6">
  <g filter="url(#alpha)">
<rect style="fill:rgb(0%,0%,0%);fill-opacity:0.6;stroke:none;" height="454" width="501" y="0" x="0"/>
  </g>
</mask>
<clipPath id="clip7">
  <rect height="454" width="501" y="0" x="0"/>
</clipPath>
<g clip-path="url(#clip7)" id="surface23">
<path transform="matrix(0.5,0,0,0.5,0,0)" d="M 563.679688 769.75 C 563.679688 769.75 563.835938 769.75 565.226562 770.03125" style="fill:none;stroke-width:2.803841;stroke-linecap:round;stroke-linejoin:round;stroke:rgb(100%,100%,100%);stroke-opacity:1;stroke-miterlimit:4;"/>
</g>
<mask id="mask7">
  <g filter="url(#alpha)">
<rect style="fill:rgb(0%,0%,0%);fill-opacity:0.219608;stroke:none;" height="454" width="501" y="0" x="0"/>
  </g>
</mask>
<clipPath id="clip8">
  <rect height="454" width="501" y="0" x="0"/>
</clipPath>
<g clip-path="url(#clip8)" id="surface26">
<path d="M 215.109375 338.292969 C 203.121094 330.460938 205.222656 315.234375 216.113281 298.175781 C 224.648438 284.8125 231.570312 269.035156 233.675781 259.054688 C 229.332031 258.878906 226.214844 258.765625 225.414062 258.765625 C 224.03125 268.464844 216.671875 285.785156 207.421875 300.269531 C 196.53125 317.324219 194.433594 332.554688 206.417969 340.386719 C 214.382812 345.589844 224.191406 345.523438 231.492188 342.386719 C 225.730469 342.855469 219.972656 341.417969 215.109375 338.292969 Z M 215.109375 338.292969" style="stroke:none;fill-rule:nonzero;fill:rgb(37.254902%,18.039216%,31.372549%);fill-opacity:1;"/>
<path d="M 262.949219 331.816406 C 258.957031 320.878906 262.003906 299.679688 257.675781 296.632812 C 254.351562 297.386719 255.121094 298.296875 254.757812 299.402344 C 255.882812 307.75 251.488281 322.835938 254.257812 333.90625 C 257.554688 347.074219 268.203125 349.101562 279.660156 346.246094 C 280.734375 345.972656 281.785156 345.597656 282.792969 345.132812 C 273.59375 346.039062 266.84375 342.46875 262.949219 331.816406 Z M 262.949219 331.816406" style="stroke:none;fill-rule:nonzero;fill:rgb(37.254902%,18.039216%,31.372549%);fill-opacity:1;"/>
</g>
<mask id="mask8">
  <g filter="url(#alpha)">
<rect style="fill:rgb(0%,0%,0%);fill-opacity:0.219608;stroke:none;" height="454" width="501" y="0" x="0"/>
  </g>
</mask>
<clipPath id="clip9">
  <rect height="454" width="501" y="0" x="0"/>
</clipPath>
<g clip-path="url(#clip9)" id="surface29">
<path d="M 288.195312 112.898438 C 291.96875 111.132812 293.511719 108.78125 293.867188 106.414062 C 293.304688 105.183594 292.546875 104.054688 291.628906 103.0625 C 289.527344 105.164062 253.171875 100.757812 248.46875 96.054688 C 248.46875 96.054688 246.488281 100.34375 248.191406 103.695312 C 269.210938 114.863281 278.609375 117.394531 288.195312 112.898438 Z M 288.195312 112.898438" style="stroke:none;fill-rule:nonzero;fill:rgb(77.647059%,32.156863%,34.509804%);fill-opacity:1;"/>
</g>
<mask id="mask9">
  <g filter="url(#alpha)">
<rect style="fill:rgb(0%,0%,0%);fill-opacity:0.129412;stroke:none;" height="454" width="501" y="0" x="0"/>
  </g>
</mask>
<clipPath id="clip10">
  <rect height="454" width="501" y="0" x="0"/>
</clipPath>
<g clip-path="url(#clip10)" id="surface32">
<path d="M 291.921875 100.101562 C 285.328125 103.585938 273.21875 98.84375 259.074219 96.445312 C 244.929688 94.042969 216.640625 93.703125 211.054688 84.789062 C 209.597656 82.46875 209.058594 79.417969 209.421875 76.214844 C 206.359375 81.765625 206.117188 88.175781 208.714844 92.316406 C 214.429688 101.429688 243.355469 101.78125 257.820312 104.234375 C 272.285156 106.6875 284.664062 111.535156 291.410156 107.972656 C 295.566406 105.777344 298.160156 99.652344 296.691406 94.242188 C 295.746094 96.808594 294.042969 98.976562 291.921875 100.101562 Z M 291.921875 100.101562" style="stroke:none;fill-rule:nonzero;fill:rgb(50.588235%,30.980392%,35.294118%);fill-opacity:1;"/>
</g>
<mask id="mask10">
  <g filter="url(#alpha)">
<rect style="fill:rgb(0%,0%,0%);fill-opacity:0.301961;stroke:none;" height="454" width="501" y="0" x="0"/>
  </g>
</mask>
<clipPath id="clip11">
  <rect height="454" width="501" y="0" x="0"/>
</clipPath>
<g clip-path="url(#clip11)" id="surface35">
<path d="M 225.898438 223.371094 C 224.148438 204.496094 219.855469 194.390625 219.855469 192.777344 C 219.855469 191.164062 231.847656 186.507812 234.828125 187.835938 C 236.277344 188.484375 237.921875 191.121094 239.589844 194.9375 C 237.640625 190.042969 235.683594 186.582031 233.992188 185.828125 C 231.015625 184.5 219.019531 189.15625 219.019531 190.769531 C 219.019531 192.382812 223.3125 202.488281 225.066406 221.363281 C 226.914062 241.3125 219.019531 263.207031 219.019531 265.96875 C 219.019531 266.378906 219.34375 266.867188 219.921875 267.402344 C 220.628906 263 227.660156 242.316406 225.898438 223.371094 Z M 225.898438 223.371094" style="stroke:none;fill-rule:nonzero;fill:rgb(93.333333%,25.098039%,42.745098%);fill-opacity:1;"/>
</g>
<mask id="mask11">
  <g filter="url(#alpha)">
<rect style="fill:rgb(0%,0%,0%);fill-opacity:0.301961;stroke:none;" height="454" width="501" y="0" x="0"/>
  </g>
</mask>
<clipPath id="clip12">
  <rect height="454" width="501" y="0" x="0"/>
</clipPath>
<g clip-path="url(#clip12)" id="surface38">
<path d="M 228.492188 221.671875 C 226.507812 210.945312 223.386719 200.460938 219.195312 190.390625 C 219.097656 190.496094 219.035156 190.628906 219.019531 190.773438 C 219.019531 192.382812 223.3125 202.488281 225.066406 221.367188 C 226.914062 241.316406 219.019531 263.207031 219.019531 265.96875 C 219.019531 267.246094 222.121094 269.332031 226.507812 270.980469 C 226.351562 267.570312 232.550781 243.089844 228.492188 221.671875 Z M 228.492188 221.671875" style="stroke:none;fill-rule:nonzero;fill:rgb(93.333333%,25.098039%,42.745098%);fill-opacity:1;"/>
</g>
<mask id="mask12">
  <g filter="url(#alpha)">
<rect style="fill:rgb(0%,0%,0%);fill-opacity:0.301961;stroke:none;" height="454" width="501" y="0" x="0"/>
  </g>
</mask>
<clipPath id="clip13">
  <rect height="454" width="501" y="0" x="0"/>
</clipPath>
<g clip-path="url(#clip13)" id="surface41">
<path d="M 278.574219 221.785156 C 280.328125 202.90625 284.621094 192.804688 284.621094 191.191406 C 284.621094 189.578125 272.625 184.921875 269.648438 186.25 C 269.347656 186.394531 269.070312 186.582031 268.828125 186.808594 C 273.726562 187.445312 281.777344 190.847656 281.777344 192.210938 C 281.777344 193.925781 277.210938 204.675781 275.347656 224.75 C 273.675781 242.75 279.460938 262.222656 281.257812 269.519531 C 283.335938 268.363281 284.621094 267.207031 284.621094 266.386719 C 284.621094 263.628906 276.722656 241.734375 278.574219 221.785156 Z M 278.574219 221.785156" style="stroke:none;fill-rule:nonzero;fill:rgb(93.333333%,25.098039%,42.745098%);fill-opacity:1;"/>
</g>
<mask id="mask13">
  <g filter="url(#alpha)">
<rect style="fill:rgb(0%,0%,0%);fill-opacity:0.4;stroke:none;" height="454" width="501" y="0" x="0"/>
  </g>
</mask>
<clipPath id="clip14">
  <rect height="454" width="501" y="0" x="0"/>
</clipPath>
<g clip-path="url(#clip14)" id="surface44">
<path d="M 196.300781 244.601562 C 196.300781 244.601562 198.066406 254.417969 202.417969 258.765625 C 204.824219 261.171875 206.570312 262.148438 207.652344 262.535156 C 207.976562 262.648438 208.332031 262.617188 208.628906 262.445312 C 208.925781 262.277344 209.140625 261.988281 209.210938 261.652344 L 209.835938 258.765625 C 209.835938 258.765625 218.195312 259.542969 222.179688 258.765625 C 224.664062 261.25 229 262.292969 233.675781 261.152344 C 237.886719 260.125 250.125 252.71875 250.125 251.035156 C 250.125 249.347656 218.941406 248.398438 218.941406 248.398438 Z M 196.300781 244.601562" style="stroke:none;fill-rule:nonzero;fill:rgb(98.431373%,67.843137%,38.431373%);fill-opacity:1;"/>
</g>
<mask id="mask14">
  <g filter="url(#alpha)">
<rect style="fill:rgb(0%,0%,0%);fill-opacity:0.4;stroke:none;" height="454" width="501" y="0" x="0"/>
  </g>
</mask>
<clipPath id="clip15">
  <rect height="454" width="501" y="0" x="0"/>
</clipPath>
<g clip-path="url(#clip15)" id="surface47">
<path d="M 267.046875 257.605469 C 261.242188 273.265625 240.878906 288.164062 223.445312 286.171875 C 211.835938 284.847656 203.773438 275.394531 201.429688 272.003906 C 199.667969 269.453125 195.832031 262.648438 195.269531 254.605469 C 192.894531 265.628906 198.648438 276.066406 200.933594 279.371094 C 203.277344 282.761719 211.339844 292.214844 222.949219 293.539062 C 240.386719 295.53125 260.75 280.632812 266.546875 264.972656 C 271.554688 251.449219 271.554688 251.449219 273.449219 229.25 L 273.3125 229.210938 C 271.976562 244.296875 271.429688 245.769531 267.046875 257.605469 Z M 267.046875 257.605469" style="stroke:none;fill-rule:nonzero;fill:rgb(98.431373%,67.843137%,38.431373%);fill-opacity:1;"/>
</g>
<mask id="mask15">
  <g filter="url(#alpha)">
<rect style="fill:rgb(0%,0%,0%);fill-opacity:0.301961;stroke:none;" height="454" width="501" y="0" x="0"/>
  </g>
</mask>
<clipPath id="clip16">
  <rect height="454" width="501" y="0" x="0"/>
</clipPath>
<g clip-path="url(#clip16)" id="surface50">
<path d="M 324.113281 196.070312 L 253.863281 246.25 L 248.390625 238.332031 L 246.941406 239.304688 L 254.675781 250.492188 L 326.34375 199.296875 Z M 324.113281 196.070312" style="stroke:none;fill-rule:nonzero;fill:rgb(70.980392%,34.901961%,34.117647%);fill-opacity:1;"/>
</g>
<mask id="mask16">
  <g filter="url(#alpha)">
<rect style="fill:rgb(0%,0%,0%);fill-opacity:0.4;stroke:none;" height="454" width="501" y="0" x="0"/>
  </g>
</mask>
<clipPath id="clip17">
  <rect height="454" width="501" y="0" x="0"/>
</clipPath>
<g clip-path="url(#clip17)" id="surface53">
<path d="M 345.511719 186.195312 L 344.527344 184.410156 C 344.714844 185.972656 342.175781 187.855469 340.742188 188.867188 L 321.175781 202.726562 C 320.347656 203.320312 319.332031 203.585938 318.320312 203.476562 L 310.519531 202.492188 L 308.507812 199.914062 L 308.304688 200.71875 L 313.363281 207.199219 L 321.164062 208.183594 C 322.175781 208.296875 323.195312 208.027344 324.019531 207.433594 L 342.539062 192.527344 C 344.699219 191 347.121094 188.25 345.511719 186.195312 Z M 345.511719 186.195312" style="stroke:none;fill-rule:nonzero;fill:rgb(98.431373%,67.843137%,38.431373%);fill-opacity:1;"/>
</g>
<mask id="mask17">
  <g filter="url(#alpha)">
<rect style="fill:rgb(0%,0%,0%);fill-opacity:0.6;stroke:none;" height="454" width="501" y="0" x="0"/>
  </g>
</mask>
<clipPath id="clip18">
  <rect height="454" width="501" y="0" x="0"/>
</clipPath>
<g clip-path="url(#clip18)" id="surface56">
<path transform="matrix(0.5,0,0,0.5,0,0)" d="M 440.03125 146.828125 C 436.046875 149.648438 431.078125 154.796875 429.976562 161.640625" style="fill:none;stroke-width:2.803841;stroke-linecap:round;stroke-linejoin:round;stroke:rgb(100%,100%,100%);stroke-opacity:1;stroke-miterlimit:4;"/>
</g>
<mask id="mask18">
  <g filter="url(#alpha)">
<rect style="fill:rgb(0%,0%,0%);fill-opacity:0.6;stroke:none;" height="454" width="501" y="0" x="0"/>
  </g>
</mask>
<clipPath id="clip19">
  <rect height="454" width="501" y="0" x="0"/>
</clipPath>
<g clip-path="url(#clip19)" id="surface59">
<path transform="matrix(0.5,0,0,0.5,0,0)" d="M 446.523438 143.664062 C 445.65625 143.96875 444.8125 144.328125 443.992188 144.726562" style="fill:none;stroke-width:2.803841;stroke-linecap:round;stroke-linejoin:round;stroke:rgb(100%,100%,100%);stroke-opacity:1;stroke-miterlimit:4;"/>
</g>
</defs>
<g id="surface1">

<path transform="matrix(0.5,0,0,0.5,0,0)" d="M 418.6875 736.007812 C 418.6875 736.007812 403.328125 742.53125 396.359375 750.125 C 386.484375 760.890625 391.523438 776.257812 414.96875 778.570312 C 443.421875 781.382812 457.96875 760.859375 458.5 753.335938 C 459.15625 744.054688 458.875 739.5625 454.984375 735.789062 C 421.328125 731.71875 418.6875 736.007812 418.6875 736.007812 Z M 418.6875 736.007812" style="fill-rule:nonzero;fill:rgb(22.352941%,16.078431%,30.588235%);fill-opacity:1;stroke-width:2.803841;stroke-linecap:round;stroke-linejoin:round;stroke:rgb(22.352941%,16.078431%,30.588235%);stroke-opacity:1;stroke-miterlimit:4;"/>
<path d="M 212.023438 343.117188 C 212.023438 343.117188 213.851562 362.085938 212.28125 366.511719 C 212.019531 367.253906 207.417969 368.234375 206.894531 371.039062 C 206.429688 373.511719 208.121094 376.25 211.851562 377.464844 C 217.746094 379.386719 224.378906 377.582031 226.726562 372.582031 C 228.875 367.996094 224.484375 357.488281 230.558594 342.769531 C 213.59375 342.769531 212.023438 343.117188 212.023438 343.117188 Z M 212.023438 343.117188" style="stroke:none;fill-rule:nonzero;fill:rgb(100%,67.058824%,56.862745%);fill-opacity:1;"/>
<path d="M 210.75 372.828125 C 211.273438 370.023438 215.875 369.042969 216.140625 368.296875 C 217.710938 363.875 215.878906 344.90625 215.878906 344.90625 C 215.878906 344.90625 217.164062 344.621094 229.863281 344.566406 C 230.082031 343.972656 230.308594 343.375 230.558594 342.765625 C 213.59375 342.765625 212.023438 343.117188 212.023438 343.117188 C 212.023438 343.117188 213.855469 362.085938 212.285156 366.507812 C 212.019531 367.253906 207.417969 368.234375 206.894531 371.039062 C 206.433594 373.511719 208.121094 376.246094 211.851562 377.464844 C 212.179688 377.570312 212.511719 377.664062 212.84375 377.746094 C 211.140625 376.375 210.429688 374.539062 210.75 372.828125 Z M 210.75 372.828125" style="stroke:none;fill-rule:nonzero;fill:rgb(90.980392%,54.509804%,45.490196%);fill-opacity:1;"/>
<path transform="matrix(0.5,0,0,0.5,0,0)" d="M 424.046875 686.234375 C 424.046875 686.234375 427.703125 724.171875 424.5625 733.023438 C 424.039062 734.507812 414.835938 736.46875 413.789062 742.078125 C 412.859375 747.023438 416.242188 752.5 423.703125 754.929688 C 435.492188 758.773438 448.757812 755.164062 453.453125 745.164062 C 457.75 735.992188 448.96875 714.976562 461.117188 685.539062 C 427.1875 685.539062 424.046875 686.234375 424.046875 686.234375 Z M 424.046875 686.234375" style="fill:none;stroke-width:2.803841;stroke-linecap:round;stroke-linejoin:round;stroke:rgb(22.352941%,16.078431%,30.588235%);stroke-opacity:1;stroke-miterlimit:4;"/>
<path d="M 207.679688 339.828125 C 207.679688 339.828125 208.703125 345.734375 208.703125 347.375 C 208.703125 349.015625 217.886719 350.445312 222.171875 350.445312 C 226.460938 350.445312 229.316406 352.078125 230.949219 350.445312 C 232.582031 348.8125 233.675781 339.21875 233.675781 338.195312 C 233.675781 337.175781 207.679688 339.828125 207.679688 339.828125 Z M 207.679688 339.828125" style="stroke:none;fill-rule:nonzero;fill:rgb(77.647059%,32.156863%,34.509804%);fill-opacity:1;"/>

<path transform="matrix(0.5,0,0,0.5,0,0)" d="M 415.359375 679.65625 C 415.359375 679.65625 417.40625 691.46875 417.40625 694.75 C 417.40625 698.03125 435.773438 700.890625 444.34375 700.890625 C 452.921875 700.890625 458.632812 704.15625 461.898438 700.890625 C 465.164062 697.625 467.351562 678.4375 467.351562 676.390625 C 467.351562 674.351562 415.359375 679.65625 415.359375 679.65625 Z M 415.359375 679.65625" style="fill:none;stroke-width:2.803841;stroke-linecap:round;stroke-linejoin:round;stroke:rgb(22.352941%,16.078431%,30.588235%);stroke-opacity:1;stroke-miterlimit:4;"/>


<path transform="matrix(0.5,0,0,0.5,0,0)" d="M 590.351562 749.140625 C 600.226562 759.90625 602.460938 775.335938 579.007812 777.648438 C 550.554688 780.460938 533.804688 763.015625 533.273438 755.492188 C 532.609375 746.21875 533.125 739.265625 537.015625 735.492188 C 570.671875 731.429688 583.382812 741.546875 590.351562 749.140625 Z M 590.351562 749.140625" style="fill-rule:nonzero;fill:rgb(22.352941%,16.078431%,30.588235%);fill-opacity:1;stroke-width:2.803841;stroke-linecap:round;stroke-linejoin:round;stroke:rgb(22.352941%,16.078431%,30.588235%);stroke-opacity:1;stroke-miterlimit:4;"/>
<path d="M 282.714844 343.117188 C 282.714844 343.117188 280.886719 362.085938 282.457031 366.511719 C 282.71875 367.253906 289.136719 372.332031 284.085938 376.246094 C 282.097656 377.789062 271.738281 377.582031 269.390625 372.582031 C 267.242188 367.996094 270.253906 357.488281 264.183594 342.769531 C 281.144531 342.769531 282.714844 343.117188 282.714844 343.117188 Z M 282.714844 343.117188" style="stroke:none;fill-rule:nonzero;fill:rgb(100%,67.058824%,56.862745%);fill-opacity:1;"/>
<path d="M 273.269531 372.90625 C 271.121094 368.324219 274.132812 357.816406 268.0625 343.09375 C 275.539062 343.09375 280.023438 343.164062 282.703125 343.238281 C 282.710938 343.167969 282.714844 343.117188 282.714844 343.117188 C 282.714844 343.117188 281.144531 342.769531 264.183594 342.769531 C 270.253906 357.488281 267.242188 368 269.390625 372.582031 C 270.988281 375.980469 276.28125 377.164062 280.136719 377.089844 C 277.214844 376.535156 274.367188 375.246094 273.269531 372.90625 Z M 273.269531 372.90625" style="stroke:none;fill-rule:nonzero;fill:rgb(90.980392%,54.509804%,45.490196%);fill-opacity:1;"/>
<path transform="matrix(0.5,0,0,0.5,0,0)" d="M 565.429688 686.234375 C 565.429688 686.234375 561.773438 724.171875 564.914062 733.023438 C 565.4375 734.507812 580.023438 747.710938 568.171875 752.492188 C 560.734375 755.492188 543.476562 755.164062 538.78125 745.164062 C 534.484375 735.992188 540.507812 714.976562 528.367188 685.539062 C 562.289062 685.539062 565.429688 686.234375 565.429688 686.234375 Z M 565.429688 686.234375" style="fill:none;stroke-width:2.803841;stroke-linecap:round;stroke-linejoin:round;stroke:rgb(22.352941%,16.078431%,30.588235%);stroke-opacity:1;stroke-miterlimit:4;"/>
<path d="M 287.058594 341.230469 C 287.058594 341.230469 286.039062 347.132812 286.039062 348.777344 C 286.039062 350.421875 278.238281 351.800781 274.058594 352.761719 C 270.902344 353.488281 265.421875 353.476562 263.789062 351.847656 C 262.15625 350.214844 261.0625 340.621094 261.0625 339.597656 C 261.0625 338.578125 287.058594 341.230469 287.058594 341.230469 Z M 287.058594 341.230469" style="stroke:none;fill-rule:nonzero;fill:rgb(77.647059%,32.156863%,34.509804%);fill-opacity:1;"/>

<path transform="matrix(0.5,0,0,0.5,0,0)" d="M 574.117188 682.460938 C 574.117188 682.460938 572.078125 694.265625 572.078125 697.554688 C 572.078125 700.84375 556.476562 703.601562 548.117188 705.523438 C 541.804688 706.976562 530.84375 706.953125 527.578125 703.695312 C 524.3125 700.429688 522.125 681.242188 522.125 679.195312 C 522.125 677.15625 574.117188 682.460938 574.117188 682.460938 Z M 574.117188 682.460938" style="fill:none;stroke-width:2.803841;stroke-linecap:round;stroke-linejoin:round;stroke:rgb(22.352941%,16.078431%,30.588235%);stroke-opacity:1;stroke-miterlimit:4;"/>


<path d="M 260.554688 197.226562 L 243.214844 197.226562 C 243.214844 197.226562 244.625 189.289062 244.789062 186.785156 C 245.050781 182.847656 244.515625 172.167969 244.515625 172.167969 L 259.253906 172.167969 C 259.253906 172.167969 258.71875 182.847656 258.976562 186.785156 C 259.144531 189.289062 260.554688 197.226562 260.554688 197.226562 Z M 260.554688 197.226562" style="stroke:none;fill-rule:nonzero;fill:rgb(100%,67.058824%,56.862745%);fill-opacity:1;"/>
<path d="M 244.515625 172.167969 C 244.515625 172.167969 244.632812 174.484375 244.730469 177.351562 C 249.328125 179.398438 254.609375 179.21875 259.054688 176.863281 C 259.148438 174.222656 259.253906 172.167969 259.253906 172.167969 Z M 244.515625 172.167969" style="stroke:none;fill-rule:nonzero;fill:rgb(90.980392%,54.509804%,45.490196%);fill-opacity:1;"/>
<path transform="matrix(0.5,0,0,0.5,0,0)" d="M 521.109375 394.453125 L 486.429688 394.453125 C 486.429688 394.453125 489.25 378.578125 489.578125 373.570312 C 490.101562 365.695312 489.03125 344.335938 489.03125 344.335938 L 518.507812 344.335938 C 518.507812 344.335938 517.4375 365.695312 517.953125 373.570312 C 518.289062 378.578125 521.109375 394.453125 521.109375 394.453125 Z M 521.109375 394.453125" style="fill:none;stroke-width:2.803841;stroke-linecap:butt;stroke-linejoin:round;stroke:rgb(22.352941%,16.078431%,30.588235%);stroke-opacity:1;stroke-miterlimit:4;"/>
<path d="M 259.21875 186.195312 C 258.386719 189.523438 255.914062 192.703125 251.660156 192.703125 C 247.402344 192.703125 244.929688 189.523438 244.101562 186.195312 L 232.667969 186.894531 L 234.835938 261.011719 L 268.207031 261.011719 L 270.375 186.894531 Z M 259.21875 186.195312" style="stroke:none;fill-rule:nonzero;fill:rgb(100%,100%,100%);fill-opacity:1;"/>
<path d="M 244.101562 189.316406 C 244.875 190.390625 247.40625 192.703125 251.660156 192.703125 C 255.917969 192.703125 258.25 191.496094 259.222656 189.316406 L 270.285156 190.011719 L 270.375 186.894531 L 259.222656 186.195312 C 258.390625 189.527344 255.917969 192.703125 251.664062 192.703125 C 247.40625 192.703125 244.929688 189.523438 244.101562 186.195312 L 232.667969 186.894531 L 232.757812 190.007812 Z M 244.101562 189.316406" style="stroke:none;fill-rule:nonzero;fill:rgb(93.72549%,93.72549%,93.72549%);fill-opacity:1;"/>
<path transform="matrix(0.5,0,0,0.5,0,0)" d="M 518.4375 372.390625 C 516.773438 379.046875 511.828125 385.40625 503.320312 385.40625 C 494.804688 385.40625 489.859375 379.046875 488.203125 372.390625 L 465.335938 373.789062 L 469.671875 522.023438 L 536.414062 522.023438 L 540.75 373.789062 Z M 518.4375 372.390625" style="fill:none;stroke-width:2.803841;stroke-linecap:butt;stroke-linejoin:round;stroke:rgb(22.352941%,16.078431%,30.588235%);stroke-opacity:1;stroke-miterlimit:4;"/>
<path d="M 278.453125 261.015625 C 278.453125 261.015625 279.828125 274.804688 293.144531 303.542969 C 302.25 323.191406 293.394531 342.820312 279.660156 346.246094 C 268.207031 349.101562 257.558594 347.074219 254.257812 333.90625 C 251.347656 322.28125 256.347656 306.226562 254.550781 298.199219 C 251.226562 298.953125 249.765625 298.929688 247.332031 298.199219 C 241.042969 312.300781 245.839844 327.914062 239.523438 336.367188 C 233.554688 344.359375 218.027344 347.972656 206.414062 340.386719 C 194.429688 332.554688 196.53125 317.324219 207.421875 300.269531 C 216.667969 285.785156 224.03125 268.464844 225.414062 258.765625 C 228.984375 258.765625 278.453125 261.015625 278.453125 261.015625 Z M 278.453125 261.015625" style="stroke:none;fill-rule:nonzero;fill:rgb(37.254902%,18.039216%,31.372549%);fill-opacity:1;"/>

<path d="M 269.066406 231.53125 C 269.066406 231.53125 269.984375 263.914062 258.675781 281.734375 C 249.21875 296.632812 230.097656 299.367188 224.671875 299.527344 C 220.238281 299.585938 215.859375 298.59375 211.882812 296.632812 L 215.988281 276.945312 Z M 269.066406 231.53125" style="stroke:none;fill-rule:nonzero;fill:rgb(35.294118%,15.686275%,28.627451%);fill-opacity:1;"/>
<path transform="matrix(0.5,0,0,0.5,0,0)" d="M 556.90625 522.03125 C 556.90625 522.03125 559.65625 549.609375 586.289062 607.085938 C 604.5 646.382812 586.789062 685.640625 559.320312 692.492188 C 536.414062 698.203125 515.117188 694.148438 508.515625 667.8125 C 502.695312 644.5625 512.695312 612.453125 509.101562 596.398438 C 504.335938 597.351562 499.429688 597.351562 494.664062 596.398438 C 482.085938 624.601562 491.679688 655.828125 479.046875 672.734375 C 467.109375 688.71875 436.054688 695.945312 412.828125 680.773438 C 388.859375 665.109375 393.0625 634.648438 414.84375 600.539062 C 433.335938 571.570312 448.0625 536.929688 450.828125 517.53125 C 457.96875 517.53125 556.90625 522.03125 556.90625 522.03125 Z M 556.90625 522.03125" style="fill:none;stroke-width:2.803841;stroke-linecap:round;stroke-linejoin:round;stroke:rgb(22.352941%,16.078431%,30.588235%);stroke-opacity:1;stroke-miterlimit:4;"/>
<path transform="matrix(0.5,0,0,0.5,0,0)" d="M 503.765625 284.640625 C 542.65625 284.640625 581.257812 278 586.53125 250.992188 C 590.265625 231.828125 583.804688 201.773438 576.53125 188.976562 L 571.359375 179.773438 L 503.773438 179.03125 L 436.1875 183.234375 C 436.1875 183.234375 406.40625 213.125 422.039062 247.132812 C 433.53125 272.140625 464.882812 284.640625 503.765625 284.640625 Z M 503.765625 284.640625" style="fill-rule:nonzero;fill:rgb(22.352941%,16.078431%,30.588235%);fill-opacity:1;stroke-width:2.803841;stroke-linecap:butt;stroke-linejoin:round;stroke:rgb(22.352941%,16.078431%,30.588235%);stroke-opacity:1;stroke-miterlimit:4;"/>
<path d="M 216.410156 138.347656 C 211.679688 143.074219 204.152344 136.121094 205.058594 126.773438 C 205.53125 121.890625 211.328125 117.867188 216.878906 124.035156 C 216.875 124.035156 219.550781 135.207031 216.410156 138.347656 Z M 216.410156 138.347656" style="stroke:none;fill-rule:nonzero;fill:rgb(100%,67.058824%,56.862745%);fill-opacity:1;"/>
<path d="M 216.644531 128.140625 C 217.195312 130.578125 217.542969 133.058594 217.679688 135.550781 C 218.558594 131.078125 216.875 124.035156 216.875 124.035156 C 211.328125 117.867188 205.527344 121.890625 205.058594 126.773438 C 204.964844 127.746094 204.960938 128.726562 205.050781 129.699219 C 206.25 125.40625 211.550781 122.480469 216.644531 128.140625 Z M 216.644531 128.140625" style="stroke:none;fill-rule:nonzero;fill:rgb(90.980392%,54.509804%,45.490196%);fill-opacity:1;"/>
<path transform="matrix(0.5,0,0,0.5,0,0)" d="M 432.820312 276.695312 C 423.359375 286.148438 408.304688 272.242188 410.117188 253.546875 C 411.0625 243.78125 422.65625 235.734375 433.757812 248.070312 C 433.75 248.070312 439.101562 270.414062 432.820312 276.695312 Z M 432.820312 276.695312" style="fill:none;stroke-width:2.803841;stroke-linecap:butt;stroke-linejoin:round;stroke:rgb(22.352941%,16.078431%,30.588235%);stroke-opacity:1;stroke-miterlimit:4;"/>
<path d="M 213.207031 131.265625 C 213.035156 130.75 212.816406 130.253906 212.546875 129.785156 C 212.285156 129.3125 211.957031 128.878906 211.570312 128.5 C 211.203125 128.136719 210.75 127.867188 210.253906 127.710938 C 209.738281 127.59375 209.203125 127.609375 208.695312 127.757812 L 208.664062 127.765625 C 208.507812 127.800781 208.351562 127.714844 208.304688 127.5625 C 208.257812 127.410156 208.339844 127.25 208.488281 127.191406 C 209.09375 126.9375 209.757812 126.847656 210.414062 126.925781 C 211.070312 127.046875 211.691406 127.324219 212.21875 127.734375 C 212.726562 128.128906 213.175781 128.597656 213.550781 129.125 C 213.929688 129.640625 214.257812 130.195312 214.523438 130.78125 C 214.671875 131.132812 214.511719 131.539062 214.164062 131.695312 C 213.816406 131.851562 213.40625 131.703125 213.242188 131.359375 C 213.230469 131.335938 213.222656 131.308594 213.210938 131.285156 Z M 213.207031 131.265625" style="stroke:none;fill-rule:nonzero;fill:rgb(22.352941%,16.078431%,30.588235%);fill-opacity:1;"/>
<path d="M 287.359375 138.347656 C 292.089844 143.074219 299.617188 136.121094 298.710938 126.773438 C 298.238281 121.890625 292.441406 117.867188 286.890625 124.035156 C 286.890625 124.035156 284.222656 135.207031 287.359375 138.347656 Z M 287.359375 138.347656" style="stroke:none;fill-rule:nonzero;fill:rgb(100%,67.058824%,56.862745%);fill-opacity:1;"/>
<path d="M 286.890625 126.988281 C 292.441406 120.820312 298.242188 124.847656 298.710938 129.726562 C 298.710938 129.738281 298.710938 129.746094 298.710938 129.757812 C 298.804688 128.765625 298.804688 127.765625 298.710938 126.773438 C 298.238281 121.890625 292.441406 117.867188 286.890625 124.035156 C 286.890625 124.035156 285.574219 129.554688 285.882812 133.925781 C 286.039062 131.589844 286.375 129.273438 286.890625 126.988281 Z M 286.890625 126.988281" style="stroke:none;fill-rule:nonzero;fill:rgb(90.980392%,54.509804%,45.490196%);fill-opacity:1;"/>
<path transform="matrix(0.5,0,0,0.5,0,0)" d="M 574.71875 276.695312 C 584.179688 286.148438 599.234375 272.242188 597.421875 253.546875 C 596.476562 243.78125 584.882812 235.734375 573.78125 248.070312 C 573.78125 248.070312 568.445312 270.414062 574.71875 276.695312 Z M 574.71875 276.695312" style="fill:none;stroke-width:2.803841;stroke-linecap:butt;stroke-linejoin:round;stroke:rgb(22.352941%,16.078431%,30.588235%);stroke-opacity:1;stroke-miterlimit:4;"/>
<path d="M 289.242188 130.800781 C 289.484375 130.253906 289.785156 129.738281 290.144531 129.261719 C 290.496094 128.785156 290.90625 128.359375 291.367188 127.992188 C 291.84375 127.625 292.386719 127.355469 292.96875 127.199219 C 293.542969 127.066406 294.140625 127.058594 294.71875 127.175781 C 294.839844 127.199219 294.929688 127.3125 294.917969 127.4375 C 294.90625 127.5625 294.800781 127.65625 294.675781 127.65625 L 294.648438 127.65625 C 294.148438 127.625 293.652344 127.703125 293.1875 127.882812 C 292.738281 128.074219 292.335938 128.351562 291.992188 128.699219 C 291.65625 129.058594 291.367188 129.464844 291.132812 129.898438 C 290.894531 130.328125 290.707031 130.78125 290.570312 131.25 L 290.566406 131.261719 C 290.464844 131.636719 290.078125 131.859375 289.703125 131.757812 C 289.328125 131.65625 289.109375 131.269531 289.210938 130.894531 C 289.21875 130.863281 289.230469 130.832031 289.242188 130.800781 Z M 289.242188 130.800781" style="stroke:none;fill-rule:nonzero;fill:rgb(22.352941%,16.078431%,30.588235%);fill-opacity:1;"/>
<path d="M 288.269531 120.707031 C 286.328125 113.183594 283.566406 105.898438 280.042969 98.976562 L 251.882812 98.632812 L 223.726562 98.976562 C 220.199219 105.898438 217.441406 113.183594 215.5 120.707031 C 212.132812 133.613281 213.597656 153.613281 225.773438 165.214844 C 233.703125 172.773438 246.945312 174.742188 251.882812 174.742188 C 256.820312 174.742188 270.066406 172.773438 277.996094 165.214844 C 290.171875 153.613281 291.636719 133.613281 288.269531 120.707031 Z M 288.269531 120.707031" style="stroke:none;fill-rule:nonzero;fill:rgb(100%,67.058824%,56.862745%);fill-opacity:1;"/>
<path d="M 277.996094 162.640625 C 270.066406 170.199219 256.820312 172.167969 251.882812 172.167969 C 246.949219 172.167969 233.703125 170.199219 225.773438 162.640625 C 217.527344 154.78125 214.199219 143.070312 213.953125 132.320312 C 213.691406 143.738281 216.863281 156.722656 225.773438 165.214844 C 233.703125 172.773438 246.949219 174.742188 251.882812 174.742188 C 256.820312 174.742188 270.066406 172.773438 277.996094 165.214844 C 286.90625 156.722656 290.078125 143.738281 289.816406 132.320312 C 289.570312 143.070312 286.242188 154.78125 277.996094 162.640625 Z M 277.996094 162.640625" style="stroke:none;fill-rule:nonzero;fill:rgb(90.980392%,54.509804%,45.490196%);fill-opacity:1;"/>
<path d="M 215.84375 119.421875 L 223.726562 98.976562 L 222.976562 97.574219 L 231.15625 99.210938 C 231.15625 99.210938 244.003906 96.058594 244.472656 96.058594 L 257.761719 96.058594 C 258.972656 96.058594 276.949219 97.574219 277.300781 97.925781 C 277.652344 98.277344 284.710938 109.230469 284.710938 109.230469 C 284.710938 109.230469 287.035156 114.359375 287.679688 118.550781 C 263.820312 124.324219 244.265625 105.535156 244.265625 105.535156 C 244.265625 105.535156 232.367188 105.027344 225.402344 103.3125 C 223.261719 106.722656 215.84375 119.421875 215.84375 119.421875" style="stroke:none;fill-rule:nonzero;fill:rgb(90.980392%,54.509804%,45.490196%);fill-opacity:1;"/>
<path transform="matrix(0.5,0,0,0.5,0,0)" d="M 576.539062 241.414062 C 572.65625 226.367188 567.132812 211.796875 560.085938 197.953125 L 503.765625 197.265625 L 447.453125 197.953125 C 440.398438 211.796875 434.882812 226.367188 431 241.414062 C 424.265625 267.226562 427.195312 307.226562 451.546875 330.429688 C 467.40625 345.546875 493.890625 349.484375 503.765625 349.484375 C 513.640625 349.484375 540.132812 345.546875 555.992188 330.429688 C 580.34375 307.226562 583.273438 267.226562 576.539062 241.414062 Z M 576.539062 241.414062" style="fill:none;stroke-width:2.803841;stroke-linecap:butt;stroke-linejoin:round;stroke:rgb(22.352941%,16.078431%,30.588235%);stroke-opacity:1;stroke-miterlimit:4;"/>
<path d="M 256.417969 136.035156 C 256.183594 135.796875 255.898438 135.625 255.582031 135.523438 C 255.246094 135.394531 254.902344 135.296875 254.550781 135.226562 C 253.125 134.945312 251.660156 134.945312 250.234375 135.226562 C 249.882812 135.296875 249.539062 135.394531 249.203125 135.523438 C 248.886719 135.621094 248.601562 135.796875 248.363281 136.03125 L 248.339844 136.0625 C 248.28125 136.132812 248.183594 136.148438 248.101562 136.105469 C 248.023438 136.0625 247.988281 135.96875 248.015625 135.882812 C 248.179688 135.46875 248.484375 135.117188 248.875 134.894531 C 249.222656 134.667969 249.597656 134.488281 249.992188 134.359375 C 251.550781 133.832031 253.238281 133.832031 254.792969 134.359375 C 255.1875 134.488281 255.5625 134.667969 255.910156 134.894531 C 256.300781 135.117188 256.605469 135.464844 256.773438 135.882812 C 256.800781 135.96875 256.761719 136.0625 256.683594 136.109375 C 256.605469 136.152344 256.503906 136.132812 256.445312 136.0625 Z M 256.417969 136.035156" style="stroke:none;fill-rule:nonzero;fill:rgb(22.352941%,16.078431%,30.588235%);fill-opacity:1;"/>
<path d="M 237.082031 142.070312 C 238.046875 142.984375 239.144531 143.753906 240.335938 144.351562 C 241.523438 144.964844 242.773438 145.457031 244.058594 145.820312 C 249.269531 147.253906 254.765625 147.25 259.972656 145.804688 C 261.257812 145.445312 262.503906 144.949219 263.691406 144.332031 C 264.878906 143.734375 265.972656 142.96875 266.9375 142.050781 L 266.941406 142.046875 C 267.09375 141.902344 267.332031 141.902344 267.484375 142.042969 C 267.636719 142.1875 267.652344 142.425781 267.515625 142.585938 C 266.570312 143.65625 265.460938 144.570312 264.222656 145.289062 C 262.996094 146 261.695312 146.578125 260.347656 147.015625 C 254.925781 148.722656 249.113281 148.71875 243.691406 147.003906 C 242.347656 146.5625 241.046875 145.984375 239.824219 145.273438 C 238.589844 144.554688 237.480469 143.640625 236.539062 142.570312 C 236.414062 142.417969 236.425781 142.199219 236.570312 142.0625 C 236.710938 141.929688 236.929688 141.929688 237.074219 142.0625 Z M 237.082031 142.070312" style="stroke:none;fill-rule:nonzero;fill:rgb(22.352941%,16.078431%,30.588235%);fill-opacity:1;"/>
<path d="M 241.71875 119.421875 C 241.71875 121.355469 240.148438 122.925781 238.214844 122.925781 C 236.277344 122.925781 234.707031 121.355469 234.707031 119.421875 C 234.707031 117.484375 236.277344 115.914062 238.214844 115.914062 C 240.148438 115.914062 241.71875 117.484375 241.71875 119.421875 Z M 241.71875 119.421875" style="stroke:none;fill-rule:nonzero;fill:rgb(22.352941%,16.078431%,30.588235%);fill-opacity:1;"/>
<path d="M 229.859375 115.714844 C 230.269531 114.671875 230.90625 113.734375 231.71875 112.964844 C 232.535156 112.183594 233.488281 111.554688 234.523438 111.109375 C 235.546875 110.664062 236.625 110.371094 237.730469 110.234375 C 238.832031 110.082031 239.949219 110.113281 241.042969 110.324219 C 241.390625 110.394531 241.640625 110.707031 241.628906 111.0625 C 241.617188 111.417969 241.351562 111.71875 241 111.769531 L 240.933594 111.777344 C 240 111.910156 239.003906 112.066406 238.070312 112.265625 C 237.132812 112.464844 236.214844 112.726562 235.320312 113.054688 C 234.433594 113.375 233.582031 113.792969 232.785156 114.300781 C 231.96875 114.835938 231.203125 115.445312 230.503906 116.125 L 230.472656 116.152344 C 230.335938 116.269531 230.136719 116.28125 229.988281 116.175781 C 229.84375 116.070312 229.789062 115.878906 229.859375 115.714844 Z M 229.859375 115.714844" style="stroke:none;fill-rule:nonzero;fill:rgb(22.352941%,16.078431%,30.588235%);fill-opacity:1;"/>
<path d="M 270.632812 119.421875 C 270.632812 121.355469 269.0625 122.925781 267.128906 122.925781 C 265.191406 122.925781 263.621094 121.355469 263.621094 119.421875 C 263.621094 117.484375 265.191406 115.914062 267.128906 115.914062 C 269.0625 115.914062 270.632812 117.484375 270.632812 119.421875 Z M 270.632812 119.421875" style="stroke:none;fill-rule:nonzero;fill:rgb(22.352941%,16.078431%,30.588235%);fill-opacity:1;"/>
<path transform="matrix(0.5,0,0,0.5,0,0)" d="M 549.5 229.726562 L 530.929688 223.070312" style="fill:none;stroke-width:4.205762;stroke-linecap:round;stroke-linejoin:round;stroke:rgb(22.352941%,16.078431%,30.588235%);stroke-opacity:1;stroke-miterlimit:4;"/>
<path d="M 248.46875 96.054688 C 248.46875 96.054688 240.144531 99.835938 251.179688 105.867188 C 259.003906 110.148438 280.863281 121.128906 289.835938 116.925781 C 298.808594 112.71875 293.265625 104.699219 291.628906 103.066406 C 289.527344 105.167969 253.171875 100.761719 248.46875 96.054688 Z M 248.46875 96.054688" style="stroke:none;fill-rule:nonzero;fill:rgb(77.647059%,32.156863%,34.509804%);fill-opacity:1;"/>

<path transform="matrix(0.5,0,0,0.5,0,0)" d="M 496.9375 192.109375 C 496.9375 192.109375 480.289062 199.671875 502.359375 211.734375 C 518.007812 220.296875 561.726562 242.257812 579.671875 233.851562 C 597.617188 225.4375 586.53125 209.398438 583.257812 206.132812 C 579.054688 210.335938 506.34375 201.523438 496.9375 192.109375 Z M 496.9375 192.109375" style="fill:none;stroke-width:2.803841;stroke-linecap:butt;stroke-linejoin:round;stroke:rgb(22.352941%,16.078431%,30.588235%);stroke-opacity:1;stroke-miterlimit:4;"/>
<path d="M 291.410156 107.972656 C 284.664062 111.535156 272.285156 106.6875 257.820312 104.234375 C 243.355469 101.78125 214.429688 101.429688 208.714844 92.316406 C 203 83.203125 210.972656 63.128906 232.644531 65.328125 C 253.355469 67.433594 271.304688 75.261719 291.410156 87.410156 C 300.324219 92.800781 297.578125 104.714844 291.410156 107.972656 Z M 291.410156 107.972656" style="stroke:none;fill-rule:nonzero;fill:rgb(50.588235%,30.980392%,35.294118%);fill-opacity:1;"/>

<path transform="matrix(0.5,0,0,0.5,0,0)" d="M 582.820312 215.945312 C 569.328125 223.070312 544.570312 213.375 515.640625 208.46875 C 486.710938 203.5625 428.859375 202.859375 417.429688 184.632812 C 406 166.40625 421.945312 126.257812 465.289062 130.65625 C 506.710938 134.867188 542.609375 150.523438 582.820312 174.820312 C 600.648438 185.601562 595.15625 209.429688 582.820312 215.945312 Z M 582.820312 215.945312" style="fill:none;stroke-width:2.803841;stroke-linecap:butt;stroke-linejoin:round;stroke:rgb(22.352941%,16.078431%,30.588235%);stroke-opacity:1;stroke-miterlimit:4;"/>
<path d="M 233.992188 185.832031 C 237.945312 187.59375 243.378906 204.15625 246.648438 219.269531 C 250.996094 239.359375 252.363281 271.214844 244.207031 272.972656 C 233.507812 275.28125 219.019531 268.730469 219.019531 265.972656 C 219.019531 263.214844 226.917969 241.320312 225.066406 221.367188 C 223.3125 202.492188 219.019531 192.386719 219.019531 190.773438 C 219.019531 189.160156 231.015625 184.503906 233.992188 185.832031 Z M 233.992188 185.832031" style="stroke:none;fill-rule:nonzero;fill:rgb(93.333333%,25.098039%,42.745098%);fill-opacity:1;"/>


<path transform="matrix(0.5,0,0,0.5,0,0)" d="M 467.984375 371.664062 C 475.890625 375.1875 486.757812 408.3125 493.296875 438.539062 C 501.992188 478.71875 504.726562 542.429688 488.414062 545.945312 C 467.015625 550.5625 438.039062 537.460938 438.039062 531.945312 C 438.039062 526.429688 453.835938 482.640625 450.132812 442.734375 C 446.625 404.984375 438.039062 384.773438 438.039062 381.546875 C 438.039062 378.320312 462.03125 369.007812 467.984375 371.664062 Z M 467.984375 371.664062" style="fill:none;stroke-width:2.803841;stroke-linecap:butt;stroke-linejoin:round;stroke:rgb(22.352941%,16.078431%,30.588235%);stroke-opacity:1;stroke-miterlimit:4;"/>
<path d="M 269.648438 186.25 C 265.695312 188.011719 260.261719 204.574219 256.992188 219.6875 C 252.644531 239.78125 251.277344 271.632812 259.433594 273.390625 C 270.132812 275.699219 284.621094 269.152344 284.621094 266.390625 C 284.621094 263.632812 276.722656 241.738281 278.578125 221.789062 C 280.328125 202.910156 284.621094 192.804688 284.621094 191.195312 C 284.621094 189.582031 272.625 184.921875 269.648438 186.25 Z M 269.648438 186.25" style="stroke:none;fill-rule:nonzero;fill:rgb(93.333333%,25.098039%,42.745098%);fill-opacity:1;"/>

<path transform="matrix(0.5,0,0,0.5,0,0)" d="M 539.296875 372.5 C 531.390625 376.023438 520.523438 409.148438 513.984375 439.375 C 505.289062 479.5625 502.554688 543.265625 518.867188 546.78125 C 540.265625 551.398438 569.242188 538.304688 569.242188 532.78125 C 569.242188 527.265625 553.445312 483.476562 557.15625 443.578125 C 560.65625 405.820312 569.242188 385.609375 569.242188 382.390625 C 569.242188 379.164062 545.25 369.84375 539.296875 372.5 Z M 539.296875 372.5" style="fill:none;stroke-width:2.803841;stroke-linecap:butt;stroke-linejoin:round;stroke:rgb(22.352941%,16.078431%,30.588235%);stroke-opacity:1;stroke-miterlimit:4;"/>
<path d="M 281.410156 233.53125 C 284.078125 237.699219 289.695312 242.894531 296.859375 238.777344 C 302.746094 235.390625 305.269531 227.824219 307.21875 220.425781 C 310.554688 207.769531 303.246094 206.34375 303.246094 206.34375 C 303.246094 206.34375 296.839844 209.070312 295.957031 210 C 295.074219 210.929688 294.191406 210.5625 292.59375 214.5 C 290.996094 218.4375 291.332031 224.417969 291.332031 224.417969 C 291.332031 224.417969 290.101562 211.03125 289.914062 207.660156 C 289.320312 197.214844 284.34375 191.085938 283.28125 192.207031 C 282.214844 193.332031 271.28125 217.722656 281.410156 233.53125 Z M 281.410156 233.53125" style="stroke:none;fill-rule:nonzero;fill:rgb(100%,100%,100%);fill-opacity:1;"/>
<path d="M 289.824219 206.5 C 289.539062 202.570312 288.433594 198.742188 286.589844 195.261719 C 286.867188 196.726562 287.046875 198.207031 287.128906 199.691406 C 287.320312 203.0625 288.550781 216.453125 288.550781 216.453125 C 288.550781 216.453125 288.214844 210.472656 289.8125 206.535156 Z M 289.824219 206.5" style="stroke:none;fill-rule:nonzero;fill:rgb(93.72549%,93.72549%,93.72549%);fill-opacity:1;"/>
<path d="M 305.28125 207.386719 C 305.171875 209.101562 304.890625 210.800781 304.433594 212.457031 C 302.484375 219.859375 299.960938 227.425781 294.074219 230.8125 C 286.914062 234.929688 281.292969 229.734375 278.625 225.566406 C 278.316406 225.085938 278.03125 224.597656 277.761719 224.105469 C 278.363281 227.453125 279.597656 230.652344 281.40625 233.53125 C 284.074219 237.699219 289.695312 242.894531 296.855469 238.777344 C 302.746094 235.390625 305.265625 227.824219 307.21875 220.425781 C 309.339844 212.371094 307.152344 208.871094 305.28125 207.386719 Z M 305.28125 207.386719" style="stroke:none;fill-rule:nonzero;fill:rgb(93.72549%,93.72549%,93.72549%);fill-opacity:1;"/>
<path transform="matrix(0.5,0,0,0.5,0,0)" d="M 562.820312 467.0625 C 568.15625 475.398438 579.390625 485.789062 593.71875 477.554688 C 605.492188 470.78125 610.539062 455.648438 614.4375 440.851562 C 621.109375 415.539062 606.492188 412.6875 606.492188 412.6875 C 606.492188 412.6875 593.679688 418.140625 591.914062 420 C 590.148438 421.859375 588.382812 421.125 585.1875 429 C 581.992188 436.875 582.664062 448.835938 582.664062 448.835938 C 582.664062 448.835938 580.203125 422.0625 579.828125 415.320312 C 578.640625 394.429688 568.6875 382.171875 566.5625 384.414062 C 564.429688 386.664062 542.5625 435.445312 562.820312 467.0625 Z M 562.820312 467.0625" style="fill:none;stroke-width:2.803841;stroke-linecap:butt;stroke-linejoin:round;stroke:rgb(22.352941%,16.078431%,30.588235%);stroke-opacity:1;stroke-miterlimit:4;"/>
<path transform="matrix(0.5,0,0,0.5,0,0)" d="M 492.296875 595.015625 C 492.296875 595.015625 502.132812 600.273438 515.359375 593.265625" style="fill:none;stroke-width:2.803841;stroke-linecap:round;stroke-linejoin:round;stroke:rgb(22.352941%,16.078431%,30.588235%);stroke-opacity:1;stroke-miterlimit:4;"/>
<path d="M 200.929688 279.371094 C 198.589844 275.980469 192.59375 265.097656 195.460938 253.769531 C 199.757812 236.753906 220.894531 222.96875 237.59375 223.078125 C 252.011719 223.171875 252.011719 223.171875 273.453125 229.25 C 271.554688 251.453125 271.554688 251.453125 266.546875 264.96875 C 260.746094 280.632812 240.382812 295.53125 222.949219 293.539062 C 211.335938 292.210938 203.273438 282.757812 200.929688 279.371094 Z M 200.929688 279.371094" style="stroke:none;fill-rule:nonzero;fill:rgb(98.431373%,67.843137%,38.431373%);fill-opacity:1;"/>


<path transform="matrix(0.5,0,0,0.5,0,0)" d="M 401.859375 558.742188 C 397.179688 551.960938 385.1875 530.195312 390.921875 507.539062 C 399.515625 473.507812 441.789062 445.9375 475.1875 446.15625 C 504.023438 446.34375 504.023438 446.34375 546.90625 458.5 C 543.109375 502.90625 543.109375 502.90625 533.09375 529.9375 C 521.492188 561.265625 480.765625 591.0625 445.898438 587.078125 C 422.671875 584.421875 406.546875 565.515625 401.859375 558.742188 Z M 401.859375 558.742188" style="fill:none;stroke-width:2.803841;stroke-linecap:round;stroke-linejoin:round;stroke:rgb(22.352941%,16.078431%,30.588235%);stroke-opacity:1;stroke-miterlimit:4;"/>
<path d="M 254.675781 250.492188 L 246.941406 239.304688 L 320.164062 190.355469 L 326.34375 199.296875 Z M 254.675781 250.492188" style="stroke:none;fill-rule:nonzero;fill:rgb(70.980392%,34.901961%,34.117647%);fill-opacity:1;"/>

<path transform="matrix(0.5,0,0,0.5,0,0)" d="M 509.351562 500.984375 L 493.882812 478.609375 L 640.328125 380.710938 L 652.6875 398.59375 Z M 509.351562 500.984375" style="fill:none;stroke-width:2.803841;stroke-linecap:round;stroke-linejoin:round;stroke:rgb(22.352941%,16.078431%,30.588235%);stroke-opacity:1;stroke-miterlimit:4;"/>
<path d="M 224.207031 275.800781 C 219.234375 270.945312 215.246094 265.167969 212.46875 258.789062 C 212.300781 258.316406 213.242188 257.664062 213.625 257.992188 C 218.605469 262.84375 222.601562 268.613281 225.386719 274.988281 C 225.589844 275.550781 224.664062 276.191406 224.207031 275.800781 Z M 224.207031 275.800781" style="stroke:none;fill-rule:nonzero;fill:rgb(22.352941%,16.078431%,30.588235%);fill-opacity:1;"/>
<path d="M 253.039062 243.355469 C 249.039062 237.570312 242.574219 235.109375 238.597656 237.855469 C 234.621094 240.605469 234.640625 247.523438 238.640625 253.308594 C 242.636719 259.09375 249.101562 261.554688 253.078125 258.808594 C 257.054688 256.058594 257.035156 249.140625 253.039062 243.355469 Z M 253.039062 243.355469" style="stroke:none;fill-rule:nonzero;fill:rgb(37.254902%,18.039216%,31.372549%);fill-opacity:1;"/>
<path d="M 253.386719 253.585938 C 249.410156 256.335938 243.527344 254.710938 238.949219 248.085938 C 237.484375 246.054688 236.457031 243.746094 235.933594 241.296875 C 234.769531 244.433594 235.480469 248.738281 238.640625 253.308594 C 243.21875 259.933594 249.101562 261.558594 253.078125 258.808594 C 255.628906 257.046875 256.765625 253.910156 256.050781 250.144531 C 255.542969 251.539062 254.609375 252.742188 253.386719 253.585938 Z M 253.386719 253.585938" style="stroke:none;fill-rule:nonzero;fill:rgb(22.352941%,16.078431%,30.588235%);fill-opacity:1;"/>
<path transform="matrix(0.41132,-0.284281,0.284281,0.41132,-97.59,183.8195)" d="M 509.183586 496.662018 C 509.1809 482.595315 501.342806 471.195054 491.677595 471.191307 C 482.007942 471.193986 474.17349 482.598198 474.176176 496.664901 C 474.172435 510.727162 482.010529 522.127423 491.67574 522.13117 C 501.345393 522.128491 509.179845 510.724279 509.183586 496.662018 Z M 509.183586 496.662018" style="fill:none;stroke-width:2.803841;stroke-linecap:round;stroke-linejoin:round;stroke:rgb(22.352941%,16.078431%,30.588235%);stroke-opacity:1;stroke-miterlimit:4;"/>
<path transform="matrix(0.5,0,0,0.5,0,0)" d="M 651.101562 354.757812 L 654.859375 361.195312" style="fill:none;stroke-width:4.205762;stroke-linecap:round;stroke-linejoin:round;stroke:rgb(22.352941%,16.078431%,30.588235%);stroke-opacity:1;stroke-miterlimit:4;"/>
<path d="M 327.394531 175.15625 L 327.792969 175.839844 C 328.066406 176.308594 327.910156 176.910156 327.441406 177.183594 L 324.453125 178.925781 C 323.984375 179.199219 323.382812 179.039062 323.109375 178.570312 L 322.710938 177.890625 C 322.4375 177.417969 322.59375 176.816406 323.0625 176.542969 L 326.050781 174.800781 C 326.519531 174.527344 327.121094 174.6875 327.394531 175.15625 Z M 327.394531 175.15625" style="stroke:none;fill-rule:nonzero;fill:rgb(22.352941%,16.078431%,30.588235%);fill-opacity:1;"/>
<path transform="matrix(0.5,0,0,0.5,0,0)" d="M 633.601562 361.609375 L 638.804688 370.617188" style="fill:none;stroke-width:4.205762;stroke-linecap:round;stroke-linejoin:round;stroke:rgb(22.352941%,16.078431%,30.588235%);stroke-opacity:1;stroke-miterlimit:4;"/>
<path d="M 318.644531 178.582031 L 319.042969 179.265625 C 319.316406 179.734375 319.160156 180.335938 318.691406 180.609375 L 315.703125 182.351562 C 315.234375 182.625 314.632812 182.46875 314.359375 182 L 313.960938 181.316406 C 313.6875 180.847656 313.84375 180.246094 314.3125 179.972656 L 317.300781 178.230469 C 317.769531 177.957031 318.371094 178.113281 318.644531 178.582031 Z M 318.644531 178.582031" style="stroke:none;fill-rule:nonzero;fill:rgb(22.352941%,16.078431%,30.588235%);fill-opacity:1;"/>
<path transform="matrix(0.5,0,0,0.5,0,0)" d="M 680.773438 397.6875 L 676.078125 391.898438" style="fill:none;stroke-width:4.205762;stroke-linecap:round;stroke-linejoin:round;stroke:rgb(22.352941%,16.078431%,30.588235%);stroke-opacity:1;stroke-miterlimit:4;"/>
<path d="M 338.910156 201.320312 L 338.410156 200.707031 C 338.066406 200.285156 338.132812 199.667969 338.554688 199.324219 L 341.238281 197.144531 C 341.660156 196.804688 342.28125 196.867188 342.621094 197.289062 L 343.121094 197.902344 C 343.460938 198.324219 343.398438 198.945312 342.976562 199.285156 L 340.289062 201.464844 C 339.871094 201.808594 339.25 201.742188 338.910156 201.320312 Z M 338.910156 201.320312" style="stroke:none;fill-rule:nonzero;fill:rgb(22.352941%,16.078431%,30.588235%);fill-opacity:1;"/>
<path transform="matrix(0.5,0,0,0.5,0,0)" d="M 668.179688 411.640625 L 661.585938 403.585938" style="fill:none;stroke-width:4.205762;stroke-linecap:round;stroke-linejoin:round;stroke:rgb(22.352941%,16.078431%,30.588235%);stroke-opacity:1;stroke-miterlimit:4;"/>
<path d="M 332.609375 208.296875 L 332.109375 207.683594 C 331.769531 207.261719 331.832031 206.644531 332.253906 206.300781 L 334.941406 204.121094 C 335.363281 203.78125 335.980469 203.84375 336.324219 204.265625 L 336.820312 204.878906 C 337.164062 205.300781 337.097656 205.921875 336.675781 206.261719 L 333.992188 208.441406 C 333.570312 208.785156 332.953125 208.71875 332.609375 208.296875 Z M 332.609375 208.296875" style="stroke:none;fill-rule:nonzero;fill:rgb(22.352941%,16.078431%,30.588235%);fill-opacity:1;"/>
<path d="M 344.527344 184.410156 L 340.515625 178.609375 C 338.9375 176.277344 335.832031 175.539062 333.371094 176.914062 L 311.820312 189.6875 C 310.921875 190.199219 310.273438 191.058594 310.023438 192.0625 L 308.304688 199.75 L 313.363281 207.070312 L 321.164062 208.183594 C 322.191406 208.304688 323.222656 207.996094 324.019531 207.335938 L 343.585938 191.691406 C 345.742188 189.878906 346.152344 186.714844 344.527344 184.410156 Z M 344.527344 184.410156" style="stroke:none;fill-rule:nonzero;fill:rgb(98.431373%,67.843137%,38.431373%);fill-opacity:1;"/>

<path transform="matrix(0.5,0,0,0.5,0,0)" d="M 689.054688 368.820312 L 681.03125 357.21875 C 677.875 352.554688 671.664062 351.078125 666.742188 353.828125 L 623.640625 379.375 C 621.84375 380.398438 620.546875 382.117188 620.046875 384.125 L 616.609375 399.5 L 626.726562 414.140625 L 642.328125 416.367188 C 644.382812 416.609375 646.445312 415.992188 648.039062 414.671875 L 687.171875 383.382812 C 691.484375 379.757812 692.304688 373.429688 689.054688 368.820312 Z M 689.054688 368.820312" style="fill:none;stroke-width:4.205762;stroke-linecap:round;stroke-linejoin:round;stroke:rgb(22.352941%,16.078431%,30.588235%);stroke-opacity:1;stroke-miterlimit:4;"/>
<path transform="matrix(0.5,0,0,0.5,0,0)" d="M 389.5625 547.03125 C 392.210938 558.195312 398.960938 567.953125 408.460938 574.382812 C 411.703125 568.203125 411.25 560.734375 407.28125 554.992188 C 403.3125 549.25 396.484375 546.1875 389.5625 547.03125 Z M 389.5625 547.03125" style="fill-rule:nonzero;fill:rgb(70.980392%,34.901961%,34.117647%);fill-opacity:1;stroke-width:2.803841;stroke-linecap:round;stroke-linejoin:round;stroke:rgb(22.352941%,16.078431%,30.588235%);stroke-opacity:1;stroke-miterlimit:4;"/>
<path d="M 246.664062 248.398438 C 248.03125 247.910156 248.875 245.976562 248.316406 244.265625 C 247.785156 242.644531 245.617188 242.902344 245.617188 242.902344 C 245.617188 242.902344 247.761719 239.226562 244.644531 237.882812 C 242.257812 236.855469 232.59375 245.152344 230.871094 242.199219 C 232.09375 239.699219 232.535156 236.890625 232.140625 234.136719 C 228.984375 230.984375 223.65625 239.050781 223.65625 245.375 C 217.574219 245.332031 212.34375 243.289062 210.332031 239.148438 L 204.351562 252.066406 C 209.359375 255.027344 214.628906 256.675781 223.195312 255.582031 C 225.109375 259.152344 232.664062 258.480469 237.441406 257.261719 C 243.214844 255.792969 246.25 254.351562 247.847656 252.410156 C 249.554688 250.335938 248.417969 248.398438 246.664062 248.398438 Z M 246.664062 248.398438" style="stroke:none;fill-rule:nonzero;fill:rgb(100%,67.058824%,56.862745%);fill-opacity:1;"/>
<path d="M 248.488281 245.558594 C 248.242188 245.8125 247.945312 246.007812 247.617188 246.132812 C 247.875 246.132812 248.132812 246.179688 248.378906 246.269531 C 248.4375 246.035156 248.472656 245.796875 248.488281 245.558594 Z M 248.488281 245.558594" style="stroke:none;fill-rule:nonzero;fill:rgb(90.980392%,54.509804%,45.490196%);fill-opacity:1;"/>
<path d="M 238.390625 255 C 233.617188 256.21875 226.058594 256.886719 224.144531 253.316406 C 215.625 254.40625 210.363281 252.777344 205.378906 249.84375 L 204.351562 252.066406 C 209.359375 255.027344 214.628906 256.675781 223.195312 255.582031 C 225.109375 259.152344 232.664062 258.484375 237.441406 257.265625 C 243.214844 255.792969 246.25 254.351562 247.847656 252.410156 C 248.382812 251.828125 248.683594 251.066406 248.683594 250.273438 C 247.058594 252.148438 244.035156 253.558594 238.390625 255 Z M 238.390625 255" style="stroke:none;fill-rule:nonzero;fill:rgb(90.980392%,54.509804%,45.490196%);fill-opacity:1;"/>
<path d="M 225.476562 238.265625 C 224.710938 239.789062 224.167969 241.410156 223.863281 243.089844 C 224.109375 243.097656 224.355469 243.105469 224.605469 243.109375 C 224.632812 241.457031 224.925781 239.820312 225.476562 238.265625 Z M 225.476562 238.265625" style="stroke:none;fill-rule:nonzero;fill:rgb(90.980392%,54.509804%,45.490196%);fill-opacity:1;"/>
<path transform="matrix(0.5,0,0,0.5,0,0)" d="M 493.328125 496.796875 C 496.0625 495.820312 497.75 491.953125 496.632812 488.53125 C 495.570312 485.289062 491.234375 485.804688 491.234375 485.804688 C 491.234375 485.804688 495.523438 478.453125 489.289062 475.765625 C 484.515625 473.710938 465.1875 490.304688 461.742188 484.398438 C 464.1875 479.398438 465.070312 473.78125 464.28125 468.273438 C 457.96875 461.96875 447.3125 478.101562 447.3125 490.75 C 435.148438 490.664062 424.6875 486.578125 420.664062 478.296875 L 408.703125 504.132812 C 418.71875 510.054688 429.257812 513.351562 446.390625 511.164062 C 450.21875 518.304688 465.328125 516.960938 474.882812 514.523438 C 486.429688 511.585938 492.5 508.703125 495.695312 504.820312 C 499.109375 500.671875 496.835938 496.796875 493.328125 496.796875 Z M 493.328125 496.796875" style="fill:none;stroke-width:2.803841;stroke-linecap:butt;stroke-linejoin:round;stroke:rgb(22.352941%,16.078431%,30.588235%);stroke-opacity:1;stroke-miterlimit:4;"/>
<path transform="matrix(0.5,0,0,0.5,0,0)" d="M 476.203125 492.585938 C 483.710938 491.078125 491.226562 485.804688 491.226562 485.804688" style="fill-rule:nonzero;fill:rgb(100%,67.058824%,56.862745%);fill-opacity:1;stroke-width:2.803841;stroke-linecap:round;stroke-linejoin:round;stroke:rgb(22.352941%,16.078431%,30.588235%);stroke-opacity:1;stroke-miterlimit:4;"/>
<path transform="matrix(0.5,0,0,0.5,0,0)" d="M 478.21875 502.0625 C 485.039062 501.414062 493.328125 496.796875 493.328125 496.796875" style="fill-rule:nonzero;fill:rgb(100%,67.058824%,56.862745%);fill-opacity:1;stroke-width:2.803841;stroke-linecap:round;stroke-linejoin:round;stroke:rgb(22.352941%,16.078431%,30.588235%);stroke-opacity:1;stroke-miterlimit:4;"/>
<path d="M 213.9375 241.140625 C 213.09375 240.378906 212.386719 240.21875 211.117188 238.53125 C 201.742188 226.0625 218.269531 211.847656 223.953125 212.3125 C 228.042969 197.976562 219.3125 192.164062 219.3125 192.164062 C 200.351562 201.359375 189.160156 217.792969 193.363281 239.144531 C 195.144531 248.1875 200.09375 254.230469 208.273438 256.671875 C 208.746094 252.117188 212.171875 245.796875 213.9375 241.140625 Z M 213.9375 241.140625" style="stroke:none;fill-rule:nonzero;fill:rgb(100%,100%,100%);fill-opacity:1;"/>
<path d="M 194.839844 233.988281 C 193.6875 228.457031 193.664062 222.746094 194.773438 217.203125 C 192.386719 223.734375 191.777344 231.089844 193.363281 239.144531 C 195.144531 248.1875 200.09375 254.230469 208.273438 256.671875 C 208.515625 254.894531 208.972656 253.148438 209.628906 251.476562 C 201.519531 249.011719 196.609375 242.988281 194.839844 233.988281 Z M 194.839844 233.988281" style="stroke:none;fill-rule:nonzero;fill:rgb(93.72549%,93.72549%,93.72549%);fill-opacity:1;"/>
<path d="M 209.839844 224.035156 C 213.058594 217.167969 220.503906 212.03125 223.953125 212.3125 C 224.445312 210.628906 224.773438 208.902344 224.941406 207.15625 C 220.414062 207.386719 210.714844 215.097656 209.839844 224.035156 Z M 209.839844 224.035156" style="stroke:none;fill-rule:nonzero;fill:rgb(93.72549%,93.72549%,93.72549%);fill-opacity:1;"/>
<path d="M 209.828125 250.925781 C 211.101562 247.570312 212.839844 244.035156 213.9375 241.140625 C 213.757812 240.980469 213.585938 240.847656 213.414062 240.722656 C 211.894531 244.183594 210.292969 247.890625 209.828125 250.925781 Z M 209.828125 250.925781" style="stroke:none;fill-rule:nonzero;fill:rgb(93.72549%,93.72549%,93.72549%);fill-opacity:1;"/>
<path transform="matrix(0.5,0,0,0.5,0,0)" d="M 427.875 482.28125 C 426.1875 480.757812 424.773438 480.4375 422.234375 477.0625 C 403.484375 452.125 436.539062 423.695312 447.90625 424.625 C 456.085938 395.953125 438.625 384.328125 438.625 384.328125 C 400.703125 402.71875 378.320312 435.585938 386.726562 478.289062 C 390.289062 496.375 400.1875 508.460938 416.546875 513.34375 C 417.492188 504.234375 424.34375 491.59375 427.875 482.28125 Z M 427.875 482.28125" style="fill:none;stroke-width:2.803841;stroke-linecap:butt;stroke-linejoin:round;stroke:rgb(22.352941%,16.078431%,30.588235%);stroke-opacity:1;stroke-miterlimit:4;"/>
<path d="M 295.429688 214.203125 C 297.492188 219.097656 298.425781 219.738281 296.34375 221.816406 C 295.484375 222.675781 298.203125 223.972656 300.0625 222.972656 C 301.925781 221.976562 302.929688 220.984375 302.929688 219.113281 C 302.929688 218.398438 302.460938 212.851562 300.847656 211.441406 C 298.59375 209.464844 293.851562 210.460938 295.429688 214.203125 Z M 295.429688 214.203125" style="stroke:none;fill-rule:nonzero;fill:rgb(100%,67.058824%,56.862745%);fill-opacity:1;"/>
<path d="M 302.421875 215.191406 C 302.015625 215.632812 302.171875 216.375 300.929688 217.617188 C 299.917969 218.628906 298.113281 218.828125 297.34375 218.707031 C 297.722656 219.949219 297.5 220.664062 296.34375 221.816406 C 295.484375 222.675781 298.199219 223.972656 300.0625 222.972656 C 300.800781 222.609375 301.472656 222.121094 302.042969 221.53125 C 302.148438 219.808594 302.34375 218.089844 302.636719 216.386719 C 302.578125 216 302.503906 215.601562 302.421875 215.191406 Z M 302.421875 215.191406" style="stroke:none;fill-rule:nonzero;fill:rgb(90.980392%,54.509804%,45.490196%);fill-opacity:1;"/>
<path d="M 302.59375 213.085938 C 302.59375 219.121094 302.824219 220.992188 304.144531 220.722656 C 305.46875 220.453125 306.679688 220.085938 307.152344 219.371094 C 307.625 218.65625 308.460938 217.40625 308.300781 214.097656 C 308.269531 212.207031 308.015625 210.332031 307.550781 208.5 C 307.148438 206.515625 302.59375 206.742188 302.59375 213.085938 Z M 302.59375 213.085938" style="stroke:none;fill-rule:nonzero;fill:rgb(100%,67.058824%,56.862745%);fill-opacity:1;"/>
<path d="M 302.644531 216.628906 C 302.761719 219.867188 303.128906 220.929688 304.148438 220.722656 C 305.472656 220.457031 306.679688 220.085938 307.152344 219.371094 C 307.628906 218.65625 308.460938 217.40625 308.304688 214.097656 C 308.296875 213.925781 308.289062 213.769531 308.28125 213.613281 C 305.484375 218.128906 303.042969 216.777344 302.644531 216.628906 Z M 302.644531 216.628906" style="stroke:none;fill-rule:nonzero;fill:rgb(90.980392%,54.509804%,45.490196%);fill-opacity:1;"/>
<path d="M 311.6875 205.175781 C 309.949219 205.167969 308.671875 206.789062 308.839844 211.097656 C 309.074219 217.289062 309.589844 217.6875 311.09375 217.609375 C 313.511719 217.480469 314.457031 210.449219 314.261719 209.042969 C 313.671875 204.824219 313.003906 205.179688 311.6875 205.175781 Z M 311.6875 205.175781" style="stroke:none;fill-rule:nonzero;fill:rgb(100%,67.058824%,56.862745%);fill-opacity:1;"/>
<path d="M 313.867188 212.898438 C 312.234375 213.648438 310.148438 214.566406 308.957031 213.371094 C 309.238281 217.378906 309.796875 217.675781 311.089844 217.609375 C 312.484375 217.535156 313.390625 215.164062 313.867188 212.898438 Z M 313.867188 212.898438" style="stroke:none;fill-rule:nonzero;fill:rgb(90.980392%,54.509804%,45.490196%);fill-opacity:1;"/>
<path transform="matrix(0.5,0,0,0.5,0,0)" d="M 590.859375 428.40625 C 594.984375 438.195312 596.851562 439.476562 592.6875 443.632812 C 590.96875 445.351562 596.40625 447.945312 600.125 445.945312 C 603.851562 443.953125 605.859375 441.96875 605.859375 438.226562 C 605.859375 436.796875 604.921875 425.703125 601.695312 422.882812 C 597.1875 418.929688 587.703125 420.921875 590.859375 428.40625 Z M 590.859375 428.40625" style="fill:none;stroke-width:2.803841;stroke-linecap:butt;stroke-linejoin:round;stroke:rgb(22.352941%,16.078431%,30.588235%);stroke-opacity:1;stroke-miterlimit:4;"/>
<path transform="matrix(0.5,0,0,0.5,0,0)" d="M 605.1875 426.171875 C 605.1875 438.242188 605.648438 441.984375 608.289062 441.445312 C 610.9375 440.90625 613.359375 440.171875 614.304688 438.742188 C 615.25 437.3125 616.921875 434.8125 616.601562 428.195312 C 616.539062 424.414062 616.03125 420.664062 615.101562 417 C 614.296875 413.03125 605.1875 413.484375 605.1875 426.171875 Z M 605.1875 426.171875" style="fill:none;stroke-width:2.803841;stroke-linecap:butt;stroke-linejoin:round;stroke:rgb(22.352941%,16.078431%,30.588235%);stroke-opacity:1;stroke-miterlimit:4;"/>
<path transform="matrix(0.5,0,0,0.5,0,0)" d="M 623.375 410.351562 C 619.898438 410.335938 617.34375 413.578125 617.679688 422.195312 C 618.148438 434.578125 619.179688 435.375 622.1875 435.21875 C 627.023438 434.960938 628.914062 420.898438 628.523438 418.085938 C 627.34375 409.648438 626.007812 410.359375 623.375 410.351562 Z M 623.375 410.351562" style="fill:none;stroke-width:2.803841;stroke-linecap:butt;stroke-linejoin:round;stroke:rgb(22.352941%,16.078431%,30.588235%);stroke-opacity:1;stroke-miterlimit:4;"/>
<path transform="matrix(0.5,0,0,0.5,0,0)" d="M 597.304688 396.15625 C 596.53125 400.757812 590.789062 409.15625 591.625 413.265625 C 596.257812 410.335938 603.328125 407.6875 607.578125 400.5625 C 609.382812 397.539062 609.148438 391.023438 606.296875 388.945312 C 602.609375 386.265625 597.992188 392.09375 597.304688 396.15625 Z M 597.304688 396.15625" style="fill-rule:nonzero;fill:rgb(100%,67.058824%,56.862745%);fill-opacity:1;stroke-width:2.803841;stroke-linecap:butt;stroke-linejoin:round;stroke:rgb(22.352941%,16.078431%,30.588235%);stroke-opacity:1;stroke-miterlimit:4;"/>


<path d="M 245.378906 155.410156 C 246.417969 154.921875 247.515625 154.566406 248.644531 154.359375 C 249.769531 154.136719 250.914062 154.023438 252.058594 154.015625 C 252.632812 154.007812 253.210938 154.050781 253.78125 154.082031 C 254.347656 154.164062 254.921875 154.199219 255.484375 154.339844 C 256.613281 154.550781 257.707031 154.910156 258.742188 155.40625 C 258.855469 155.460938 258.914062 155.585938 258.878906 155.707031 C 258.847656 155.828125 258.730469 155.90625 258.605469 155.894531 L 258.589844 155.894531 C 257.476562 155.773438 256.40625 155.597656 255.316406 155.53125 C 254.234375 155.449219 253.152344 155.398438 252.066406 155.421875 C 249.882812 155.441406 247.703125 155.601562 245.535156 155.890625 L 245.523438 155.890625 C 245.398438 155.90625 245.28125 155.832031 245.242188 155.710938 C 245.207031 155.589844 245.265625 155.460938 245.378906 155.40625 Z M 245.378906 155.410156" style="stroke:none;fill-rule:nonzero;fill:rgb(90.980392%,54.509804%,45.490196%);fill-opacity:1;"/>
<path d="M 267.28125 139.207031 C 267.679688 139.3125 268.054688 139.492188 268.390625 139.734375 C 268.730469 139.964844 269.035156 140.242188 269.300781 140.558594 C 269.566406 140.875 269.785156 141.226562 269.953125 141.605469 C 270.125 141.976562 270.226562 142.378906 270.261719 142.785156 C 270.269531 142.847656 270.230469 142.902344 270.175781 142.921875 C 270.121094 142.941406 270.058594 142.917969 270.023438 142.867188 L 270.019531 142.859375 C 269.808594 142.527344 269.636719 142.199219 269.421875 141.894531 C 269.222656 141.585938 269 141.289062 268.761719 141.011719 C 268.277344 140.441406 267.746094 139.917969 267.171875 139.441406 L 267.164062 139.429688 C 267.117188 139.390625 267.105469 139.328125 267.132812 139.273438 C 267.160156 139.222656 267.222656 139.195312 267.28125 139.207031 Z M 267.28125 139.207031" style="stroke:none;fill-rule:nonzero;fill:rgb(22.352941%,16.078431%,30.588235%);fill-opacity:1;"/>
<path d="M 232.84375 143.023438 C 232.949219 142.625 233.125 142.25 233.367188 141.914062 C 233.601562 141.574219 233.878906 141.269531 234.195312 141.003906 C 234.507812 140.738281 234.863281 140.519531 235.238281 140.351562 C 235.613281 140.179688 236.011719 140.074219 236.421875 140.039062 C 236.480469 140.035156 236.535156 140.070312 236.554688 140.128906 C 236.574219 140.183594 236.550781 140.246094 236.503906 140.277344 L 236.496094 140.285156 C 236.160156 140.496094 235.832031 140.667969 235.527344 140.882812 C 235.21875 141.082031 234.925781 141.304688 234.644531 141.542969 C 234.078125 142.023438 233.550781 142.558594 233.074219 143.132812 L 233.066406 143.140625 C 233.027344 143.183594 232.960938 143.199219 232.910156 143.171875 C 232.855469 143.140625 232.828125 143.082031 232.84375 143.023438 Z M 232.84375 143.023438" style="stroke:none;fill-rule:nonzero;fill:rgb(22.352941%,16.078431%,30.588235%);fill-opacity:1;"/>
</g>
</svg>